<?xml version="1.0" standalone="no"?>
<!DOCTYPE svg PUBLIC "-//W3C//DTD SVG 20010904//EN" "http://www.w3.org/TR/2001/REC-SVG-20010904/DTD/svg10.dtd">
<!-- Created using Krita: https://krita.org -->
<svg xmlns="http://www.w3.org/2000/svg" 
    xmlns:xlink="http://www.w3.org/1999/xlink"
    xmlns:krita="http://krita.org/namespaces/svg/krita"
    xmlns:sodipodi="http://sodipodi.sourceforge.net/DTD/sodipodi-0.dtd"
    width="61.488pt"
    height="61.488pt"
    viewBox="0 0 61.488 61.488">
<defs/>
<rect id="shape0" transform="translate(12, 12)" fill="#afb2b6" fill-rule="evenodd" stroke="#afb2b6" stroke-width="24" stroke-linecap="round" stroke-linejoin="round" width="37.44" height="37.44"/><g id="group0" transform="translate(18.3599993069846, 47.04)" fill="none">
  <path id="shape1" fill="#212529" stroke="#afb2b6" stroke-width="1" stroke-linecap="butt" stroke-linejoin="miter" stroke-miterlimit="2" d="M3.6 -5.76L3.6 -25.92C3.6 -29.76 6 -31.68 10.8 -31.68L32.8804 -31.68L32.8804 -27.6007L12.24 -27.6007C10.9597 -27.6007 10.3196 -27.0885 10.3196 -26.064L10.3196 -5.616C10.3196 -4.59225 10.9597 -4.08038 12.24 -4.08038L32.8804 -4.08038L32.8804 0L10.8 0C6 0 3.6 -1.92 3.6 -5.76" sodipodi:nodetypes="ccccccccccccc"/>
 </g><g id="group1" transform="translate(3.59999987147751, 47.04)" fill="none">
  <path id="shape2" fill="#212529" stroke="#afb2b6" stroke-width="1" stroke-linecap="butt" stroke-linejoin="miter" stroke-miterlimit="2" d="M3.6 -5.76L3.6 -25.92C3.6 -29.76 6 -31.68 10.8 -31.68L32.8804 -31.68L32.8804 -27.6007L12.24 -27.6007C10.9597 -27.6007 10.3196 -27.0885 10.3196 -26.064L10.3196 -5.616C10.3196 -4.59225 10.9597 -4.08038 12.24 -4.08038L28.08 -4.08038L28.08 -14.8804L19.9204 -14.8804L19.9204 -18.9596L34.8008 -18.9596L34.8008 0L10.8 0C6 0 3.6 -1.92 3.6 -5.76" sodipodi:nodetypes="ccccccccccccccccc"/>
 </g>
</svg>
